PathFileType	4	(X/Y/Z)	D:\Share\Shared_Data\Ergonomics\Sit To Stand Pertubation\S3\Unperturbed.trc
DataRate	CameraRate	NumFrames	NumMarkers	Units	OrigDataRate	OrigDataStartFrame	OrigNumFrames	
100	100	12	18	m	100	4724	191
Frame#	Time	R_Thigh			R_ASIS			R_Pelvis			V_Sacral			L_Pelvis			L_ASIS			Clavical			R_Acromium			L_Acromium			Sternum			Torso			R_Thigh_Med			R_Thigh_Lat			R_Shank_Med			R_Shank_Lat			R_Shank			R_Heel			R_Toe			
		X1	Y1	Z1	X2	Y2	Z2	X3	Y3	Z3	X4	Y4	Z4	X5	Y5	Z5	X6	Y6	Z6	X7	Y7	Z7	X8	Y8	Z8	X9	Y9	Z9	X10	Y10	Z10	X11	Y11	Z11	X12	Y12	Z12	X13	Y13	Z13	X14	Y14	Z14	X15	Y15	Z15	X16	Y16	Z16	X17	Y17	Z17	X18	Y18	Z18	

4724	47.23	0.1522654	0.57881543	0.1174294	-0.016121552	0.64950903	0.14362267	-0.12548306	0.62924103	0.19728064	-0.23170798	0.62250043	0.011601825	-0.121556	0.64859711	-0.1863875	-0.014241635	0.64602557	-0.13404829	-0.060153893	1.0400942	-0.0047047224	-0.11637609	1.0954109	0.16931673	-0.11512174	1.0972554	-0.16224257	-0.032357311	0.96765277	0.0026909723	-0.057192993	1.027535	-0.067295471	0.3395051	0.47571097	0.09360997	0.31852072	0.44795605	0.20489256	0.25958115	0.10852046	0.094517975	0.23515927	0.09945311	0.17467825	0.25911563	0.27198972	0.20365211	0.1808445	0.058962189	0.12564561	0.39781281	0.056085762	0.13828195
4725	47.24	0.15231845	0.57879962	0.11745217	-0.016063322	0.64948132	0.1437309	-0.12545587	0.62916089	0.19731482	-0.23164999	0.62254041	0.01163263	-0.12152197	0.64860474	-0.18636166	-0.014209439	0.64600104	-0.13403923	-0.060052959	1.0401133	-0.0045879984	-0.11631153	1.0954498	0.1693866	-0.11488661	1.0972629	-0.16219563	-0.032257355	0.96765979	0.0027993193	-0.057047985	1.0275444	-0.067190132	0.33952228	0.47567615	0.093630341	0.31855664	0.44794235	0.20493007	0.25958441	0.10852184	0.094523109	0.23519885	0.099443329	0.17469539	0.25914459	0.27197775	0.2036797	0.18086288	0.058937653	0.12562643	0.39781445	0.056083939	0.13828519
4726	47.25	0.15238057	0.57878052	0.11747969	-0.015982084	0.64944653	0.14384952	-0.12540123	0.6290849	0.19736371	-0.2315797	0.62258667	0.011678535	-0.12147144	0.64862646	-0.18632443	-0.014161943	0.64597815	-0.13401869	-0.059957809	1.0401296	-0.004462564	-0.11625512	1.0954718	0.1694668	-0.11464739	1.0972665	-0.16213933	-0.032160236	0.96766772	0.0029247942	-0.056899204	1.0275508	-0.067075142	0.33955057	0.4756459	0.093654274	0.31860062	0.44792535	0.20497314	0.25958902	0.10852479	0.094528366	0.23523547	0.099433105	0.17471434	0.2591803	0.27196646	0.20371118	0.18087897	0.058928764	0.12561816	0.39781735	0.056081985	0.1382878
4727	47.26	0.15244852	0.57875897	0.11751151	-0.01588129	0.64940613	0.1439754	-0.12532124	0.62901544	0.19742729	-0.23149931	0.62263837	0.011740049	-0.1214083	0.64866156	-0.18627815	-0.014102553	0.64596045	-0.13398462	-0.059867058	1.0401428	-0.0043313184	-0.11620694	1.0954745	0.16955609	-0.11440549	1.0972656	-0.16207503	-0.032065876	0.96767609	0.0030664232	-0.056745232	1.0275535	-0.066953667	0.33958896	0.47562213	0.093681229	0.31865161	0.44790463	0.20502049	0.25959464	0.10852902	0.094533592	0.23526573	0.099421989	0.17473387	0.25922067	0.27195627	0.20374432	0.18089185	0.058939545	0.12562408	0.39782123	0.056079899	0.13828975
4728	47.27	0.15251945	0.57873553	0.11754707	-0.015764672	0.6493609	0.14410318	-0.12521928	0.62895514	0.19750519	-0.23141083	0.62269482	0.011816416	-0.12133641	0.64870886	-0.18622531	-0.014035426	0.64595062	-0.1339359	-0.05977776	1.0401521	-0.0041964283	-0.11616544	1.0954573	0.16965317	-0.11416225	1.0972601	-0.1620042	-0.031972975	0.96768396	0.0032222543	-0.056584766	1.0275504	-0.066828056	0.33963458	0.47560452	0.093710304	0.31870923	0.44788043	0.2050706	0.25960092	0.1085342	0.094538338	0.23528683	0.099411919	0.17475157	0.25926373	0.27194775	0.2037769	0.18090105	0.058970181	0.12564409	0.39782602	0.056077805	0.13829092
4729	47.28	0.15259114	0.57871118	0.11758582	-0.015636133	0.64931116	0.14422687	-0.1250994	0.62890637	0.19759639	-0.23131616	0.6227558	0.011905704	-0.12125925	0.64876654	-0.18616797	-0.013964595	0.64595013	-0.13387273	-0.059685936	1.0401567	-0.0040596371	-0.11612709	1.0954214	0.16975627	-0.11391815	1.0972506	-0.16192752	-0.031879179	0.96768921	0.0033893325	-0.056416832	1.0275406	-0.066699463	0.33968311	0.47559116	0.093740211	0.31877341	0.44785376	0.20512177	0.25960736	0.10854006	0.09454213	0.23529704	0.099406677	0.17476416	0.25930804	0.27194128	0.20380714	0.18090669	0.059018082	0.12567581	0.39783167	0.056075817	0.13829117
4730	47.29	0.1526619	0.57868738	0.11762716	-0.015499654	0.64925836	0.14434154	-0.12496576	0.62887164	0.19769888	-0.23121735	0.62282111	0.012005157	-0.12117979	0.64883252	-0.18610799	-0.013893664	0.64595966	-0.1337968	-0.059587303	1.0401556	-0.0039224484	-0.11608672	1.0953696	0.16986299	-0.11367337	1.0972383	-0.16184555	-0.031781572	0.96769006	0.003564328	-0.056240936	1.0275237	-0.066568275	0.33973068	0.47558069	0.093769707	0.31884427	0.44782599	0.20517221	0.25961374	0.10854649	0.094544617	0.23529587	0.099409813	0.17476891	0.25935275	0.27193707	0.20383418	0.18090953	0.059077316	0.12571435	0.39783829	0.056073673	0.13829065
4731	47.3	0.15273045	0.57866534	0.11767043	-0.015359123	0.64920441	0.144444	-0.12482251	0.62885303	0.19780934	-0.2311167	0.62289038	0.012111415	-0.1211003	0.64890472	-0.18604666	-0.01382621	0.6459787	-0.13371051	-0.059477615	1.0401481	-0.0037859523	-0.11603842	1.0953048	0.16997015	-0.11342771	1.0972244	-0.16175966	-0.031677055	0.96768481	0.0037441509	-0.056057171	1.0274989	-0.066435127	0.33977567	0.47557474	0.093797783	0.31892163	0.44779874	0.20522	0.25962024	0.10855338	0.094545799	0.2352847	0.099422867	0.17476534	0.25939743	0.27193518	0.20385783	0.18091077	0.059136478	0.12575053	0.39784598	0.056070442	0.13828993
4732	47.31	0.15279579	0.57864636	0.1177148	-0.015218136	0.64915161	0.14453214	-0.12467415	0.62885181	0.19792296	-0.23101685	0.62296313	0.012220805	-0.12102268	0.64898132	-0.18598479	-0.013765974	0.64600616	-0.1336165	-0.059352661	1.0401328	-0.0036510417	-0.11597662	1.0952314	0.17007437	-0.11318014	1.0972084	-0.16167279	-0.03156254	0.96767163	0.0039256551	-0.055865795	1.027467	-0.066301529	0.33981897	0.47557761	0.093823845	0.31900491	0.44777347	0.20526332	0.2596279	0.10856057	0.094546219	0.23526801	0.099444679	0.17475525	0.25944183	0.27193546	0.20387823	0.18091187	0.059176224	0.12576847	0.39785495	0.05606498	0.13828958
4733	47.32	0.15285715	0.57863251	0.11775942	-0.015080017	0.64910193	0.14460428	-0.1245252	0.62886835	0.19803427	-0.23092072	0.62303845	0.012329705	-0.12094873	0.64906091	-0.18592317	-0.013716472	0.64604083	-0.13351741	-0.059208282	1.0401083	-0.0035190246	-0.11589649	1.0951525	0.17017245	-0.11292799	1.0971904	-0.16158842	-0.03143511	0.96764771	0.0041049519	-0.055666492	1.0274288	-0.066170113	0.33986249	0.47559387	0.093847908	0.31909268	0.44775162	0.20530028	0.25963852	0.10856799	0.094546989	0.23525345	0.099471443	0.17474138	0.25948581	0.27193771	0.20389526	0.18091415	0.059166916	0.1257436	0.3978656	0.056056332	0.13829008
4734	47.33	0.15291394	0.57862634	0.11780338	-0.014948031	0.64905603	0.1446595	-0.12437985	0.62890125	0.19813841	-0.23083119	0.62311591	0.012434908	-0.12088033	0.64914264	-0.18586259	-0.013680388	0.64608136	-0.13341588	-0.059040607	1.0400728	-0.0033918729	-0.11579395	1.0950724	0.17026184	-0.11266677	1.0971688	-0.16151001	-0.031292416	0.96760974	0.0042774682	-0.05545771	1.0273848	-0.066044533	0.33990768	0.47562622	0.093870781	0.31918198	0.44773416	0.20532892	0.2596543	0.10857553	0.094549385	0.23524707	0.099498276	0.1747249	0.25952917	0.27194156	0.20390839	0.18091826	0.059067577	0.12564198	0.39787839	0.056043987	0.13829147
4735	47.34	0.15296581	0.57863177	0.11784586	-0.014825422	0.64901373	0.14469785	-0.12424178	0.62894781	0.19823166	-0.23075085	0.62319434	0.012533887	-0.12081959	0.64922589	-0.18580415	-0.013659145	0.64612677	-0.13331471	-0.058846333	1.0400242	-0.0032720766	-0.11566539	1.0949948	0.170341	-0.11238984	1.0971423	-0.16144044	-0.031132999	0.96755463	0.0044386144	-0.055236488	1.0273346	-0.065929001	0.33995453	0.47567532	0.093893776	0.31926843	0.44772125	0.20534737	0.25967737	0.1085829	0.094554657	0.23524821	0.099521523	0.17470377	0.25957138	0.27194617	0.20391664	0.18092407	0.058828007	0.12542218	0.39789346	0.056027843	0.13829337
